<svg width="147" height="56" viewBox="0 0 147 56" fill="none" xmlns="http://www.w3.org/2000/svg">
<path d="M9.91059 24.784H16.1026V33.328C15.1906 33.632 14.2546 33.856 13.2946 34C12.3506 34.16 11.2706 34.24 10.0546 34.24C8.31059 34.24 6.83059 33.888 5.61459 33.184C4.41459 32.48 3.49459 31.472 2.85459 30.16C2.23059 28.848 1.91859 27.272 1.91859 25.432C1.91859 23.64 2.27059 22.088 2.97459 20.776C3.67859 19.464 4.68659 18.448 5.99859 17.728C7.32659 16.992 8.93459 16.624 10.8226 16.624C11.7666 16.624 12.6706 16.72 13.5346 16.912C14.3986 17.088 15.1986 17.336 15.9346 17.656L14.9986 19.816C14.4066 19.544 13.7426 19.32 13.0066 19.144C12.2866 18.952 11.5266 18.856 10.7266 18.856C9.46259 18.856 8.36659 19.128 7.43859 19.672C6.52659 20.2 5.82259 20.96 5.32659 21.952C4.84659 22.928 4.60659 24.096 4.60659 25.456C4.60659 26.736 4.80659 27.872 5.20659 28.864C5.60659 29.856 6.23859 30.632 7.10259 31.192C7.96659 31.752 9.09459 32.032 10.4866 32.032C10.9506 32.032 11.3586 32.016 11.7106 31.984C12.0626 31.936 12.3826 31.888 12.6706 31.84C12.9746 31.776 13.2626 31.72 13.5346 31.672V27.016H9.91059V24.784ZM24.0361 16.864C25.5081 16.864 26.7161 17.048 27.6601 17.416C28.6041 17.784 29.3081 18.336 29.7721 19.072C30.2361 19.792 30.4681 20.704 30.4681 21.808C30.4681 22.688 30.3001 23.432 29.9641 24.04C29.6441 24.632 29.2281 25.12 28.7161 25.504C28.2041 25.872 27.6681 26.168 27.1081 26.392L31.9081 34H28.9321L24.8041 27.064H21.8281V34H19.2361V16.864H24.0361ZM23.8681 19.072H21.8281V24.904H23.9881C24.8681 24.904 25.5881 24.792 26.1481 24.568C26.7241 24.344 27.1401 24.008 27.3961 23.56C27.6681 23.112 27.8041 22.56 27.8041 21.904C27.8041 21.216 27.6601 20.672 27.3721 20.272C27.1001 19.856 26.6681 19.552 26.0761 19.36C25.5001 19.168 24.7641 19.072 23.8681 19.072ZM46.7596 27.952C46.7596 29.136 46.5116 30.208 46.0156 31.168C45.5356 32.112 44.7916 32.864 43.7836 33.424C42.7756 33.968 41.5036 34.24 39.9676 34.24C37.7916 34.24 36.1356 33.664 34.9996 32.512C33.8796 31.344 33.3196 29.808 33.3196 27.904V16.864H35.9116V27.784C35.9116 29.192 36.2556 30.256 36.9436 30.976C37.6316 31.68 38.6796 32.032 40.0876 32.032C41.0476 32.032 41.8316 31.856 42.4396 31.504C43.0476 31.152 43.4876 30.664 43.7596 30.04C44.0476 29.4 44.1916 28.64 44.1916 27.76V16.864H46.7596V27.952ZM55.0223 16.864C57.2623 16.864 58.8943 17.32 59.9183 18.232C60.9423 19.128 61.4543 20.384 61.4543 22C61.4543 22.72 61.3343 23.408 61.0943 24.064C60.8703 24.72 60.4943 25.312 59.9663 25.84C59.4383 26.352 58.7343 26.76 57.8543 27.064C56.9903 27.352 55.9263 27.496 54.6623 27.496H52.8143V34H50.2223V16.864H55.0223ZM54.8303 19.048H52.8143V25.312H54.3743C55.3503 25.312 56.1663 25.208 56.8223 25C57.4783 24.776 57.9663 24.432 58.2863 23.968C58.6223 23.488 58.7903 22.864 58.7903 22.096C58.7903 21.072 58.4703 20.312 57.8303 19.816C57.2063 19.304 56.2063 19.048 54.8303 19.048ZM79.0777 25.408C79.0777 26.736 78.9097 27.944 78.5737 29.032C78.2537 30.104 77.7577 31.032 77.0857 31.816C76.4297 32.6 75.5977 33.2 74.5897 33.616C73.5977 34.032 72.4377 34.24 71.1097 34.24C69.7497 34.24 68.5657 34.032 67.5577 33.616C66.5657 33.184 65.7337 32.584 65.0617 31.816C64.4057 31.032 63.9177 30.096 63.5977 29.008C63.2777 27.92 63.1177 26.712 63.1177 25.384C63.1177 23.624 63.4057 22.088 63.9817 20.776C64.5577 19.464 65.4377 18.44 66.6217 17.704C67.8217 16.968 69.3257 16.6 71.1337 16.6C72.8937 16.6 74.3577 16.968 75.5257 17.704C76.7097 18.424 77.5977 19.448 78.1897 20.776C78.7817 22.088 79.0777 23.632 79.0777 25.408ZM65.8537 25.408C65.8537 26.784 66.0377 27.968 66.4057 28.96C66.7737 29.936 67.3497 30.696 68.1337 31.24C68.9177 31.768 69.9097 32.032 71.1097 32.032C72.3257 32.032 73.3177 31.768 74.0857 31.24C74.8537 30.696 75.4217 29.936 75.7897 28.96C76.1577 27.968 76.3417 26.784 76.3417 25.408C76.3417 23.344 75.9257 21.736 75.0937 20.584C74.2777 19.416 72.9577 18.832 71.1337 18.832C69.9177 18.832 68.9177 19.096 68.1337 19.624C67.3497 20.152 66.7737 20.904 66.4057 21.88C66.0377 22.856 65.8537 24.032 65.8537 25.408Z" fill="white"/>
<path d="M94.9464 23.888H104.666V36.956C103.298 37.388 101.894 37.736 100.454 38C99.0144 38.24 97.3824 38.36 95.5584 38.36C91.6704 38.36 88.6824 37.208 86.5944 34.904C84.5064 32.6 83.4624 29.336 83.4624 25.112C83.4624 22.448 83.9784 20.132 85.0104 18.164C86.0664 16.172 87.5904 14.636 89.5824 13.556C91.5744 12.476 93.9984 11.936 96.8544 11.936C98.2464 11.936 99.5904 12.08 100.886 12.368C102.206 12.656 103.406 13.028 104.486 13.484L102.902 17.264C102.062 16.88 101.114 16.544 100.058 16.256C99.0024 15.968 97.8984 15.824 96.7464 15.824C94.9944 15.824 93.4824 16.208 92.2104 16.976C90.9384 17.744 89.9544 18.836 89.2584 20.252C88.5864 21.644 88.2504 23.288 88.2504 25.184C88.2504 27.008 88.5144 28.616 89.0424 30.008C89.5704 31.4 90.4104 32.492 91.5624 33.284C92.7144 34.076 94.2144 34.472 96.0624 34.472C96.9744 34.472 97.7424 34.424 98.3664 34.328C98.9904 34.232 99.5784 34.124 100.13 34.004V27.812H94.9464V23.888ZM117.036 12.296C120.372 12.296 122.796 12.992 124.308 14.384C125.844 15.776 126.612 17.696 126.612 20.144C126.612 21.608 126.3 22.988 125.676 24.284C125.052 25.556 123.996 26.588 122.508 27.38C121.044 28.148 119.052 28.532 116.532 28.532H113.976V38H109.368V12.296H117.036ZM116.748 16.112H113.976V24.716H116.064C117.936 24.716 119.376 24.38 120.384 23.708C121.416 23.012 121.932 21.884 121.932 20.324C121.932 18.908 121.512 17.852 120.672 17.156C119.832 16.46 118.524 16.112 116.748 16.112ZM145.157 30.98C145.157 33.26 144.329 35.06 142.673 36.38C141.017 37.7 138.725 38.36 135.797 38.36C132.965 38.36 130.565 37.88 128.597 36.92V32.6C129.677 33.08 130.865 33.524 132.161 33.932C133.457 34.316 134.777 34.508 136.121 34.508C137.657 34.508 138.785 34.208 139.505 33.608C140.225 33.008 140.585 32.216 140.585 31.232C140.585 30.152 140.129 29.3 139.217 28.676C138.305 28.052 136.973 27.368 135.221 26.624C134.165 26.168 133.157 25.628 132.197 25.004C131.237 24.38 130.445 23.588 129.821 22.628C129.197 21.668 128.885 20.444 128.885 18.956C128.885 16.748 129.653 15.032 131.189 13.808C132.749 12.56 134.825 11.936 137.417 11.936C138.785 11.936 140.057 12.08 141.233 12.368C142.433 12.656 143.633 13.064 144.833 13.592L143.357 17.3C142.277 16.844 141.245 16.484 140.261 16.22C139.301 15.956 138.305 15.824 137.273 15.824C136.025 15.824 135.077 16.112 134.429 16.688C133.781 17.24 133.457 17.96 133.457 18.848C133.457 19.568 133.637 20.168 133.997 20.648C134.357 21.128 134.909 21.572 135.653 21.98C136.421 22.388 137.405 22.856 138.605 23.384C139.973 23.984 141.149 24.608 142.133 25.256C143.117 25.904 143.861 26.684 144.365 27.596C144.893 28.508 145.157 29.636 145.157 30.98Z" fill="white"/>
<path d="M17.6577 54.1C17.111 54.1 16.6077 54.0133 16.1477 53.84C15.6943 53.66 15.2977 53.41 14.9577 53.09C14.6177 52.7633 14.3543 52.38 14.1677 51.94C13.981 51.5 13.8877 51.02 13.8877 50.5C13.8877 49.98 13.981 49.5 14.1677 49.06C14.3543 48.62 14.6177 48.24 14.9577 47.92C15.3043 47.5933 15.7077 47.3433 16.1677 47.17C16.6277 46.99 17.131 46.9 17.6777 46.9C18.271 46.9 18.8043 46.9967 19.2777 47.19C19.7577 47.3833 20.161 47.6667 20.4877 48.04L19.6677 48.84C19.3943 48.5667 19.0977 48.3667 18.7777 48.24C18.4643 48.1067 18.1177 48.04 17.7377 48.04C17.371 48.04 17.031 48.1 16.7177 48.22C16.4043 48.34 16.1343 48.51 15.9077 48.73C15.681 48.95 15.5043 49.21 15.3777 49.51C15.2577 49.81 15.1977 50.14 15.1977 50.5C15.1977 50.8533 15.2577 51.18 15.3777 51.48C15.5043 51.78 15.681 52.0433 15.9077 52.27C16.1343 52.49 16.401 52.66 16.7077 52.78C17.0143 52.9 17.3543 52.96 17.7277 52.96C18.0743 52.96 18.4077 52.9067 18.7277 52.8C19.0543 52.6867 19.3643 52.5 19.6577 52.24L20.3977 53.21C20.031 53.5033 19.6043 53.7267 19.1177 53.88C18.6377 54.0267 18.151 54.1 17.6577 54.1ZM19.1677 53.04V50.42H20.3977V53.21L19.1677 53.04ZM22.9123 49.91H26.3923V50.98H22.9123V49.91ZM23.0123 52.91H26.9623V54H21.7123V47H26.8223V48.09H23.0123V52.91ZM30.1815 54.1C29.6348 54.1 29.1115 54.0233 28.6115 53.87C28.1115 53.71 27.7148 53.5067 27.4215 53.26L27.8715 52.25C28.1515 52.47 28.4981 52.6533 28.9115 52.8C29.3248 52.9467 29.7481 53.02 30.1815 53.02C30.5481 53.02 30.8448 52.98 31.0715 52.9C31.2981 52.82 31.4648 52.7133 31.5715 52.58C31.6781 52.44 31.7315 52.2833 31.7315 52.11C31.7315 51.8967 31.6548 51.7267 31.5015 51.6C31.3481 51.4667 31.1481 51.3633 30.9015 51.29C30.6615 51.21 30.3915 51.1367 30.0915 51.07C29.7981 51.0033 29.5015 50.9267 29.2015 50.84C28.9081 50.7467 28.6381 50.63 28.3915 50.49C28.1515 50.3433 27.9548 50.15 27.8015 49.91C27.6481 49.67 27.5715 49.3633 27.5715 48.99C27.5715 48.61 27.6715 48.2633 27.8715 47.95C28.0781 47.63 28.3881 47.3767 28.8015 47.19C29.2215 46.9967 29.7515 46.9 30.3915 46.9C30.8115 46.9 31.2281 46.9533 31.6415 47.06C32.0548 47.1667 32.4148 47.32 32.7215 47.52L32.3115 48.53C31.9981 48.3433 31.6748 48.2067 31.3415 48.12C31.0081 48.0267 30.6881 47.98 30.3815 47.98C30.0215 47.98 29.7281 48.0233 29.5015 48.11C29.2815 48.1967 29.1181 48.31 29.0115 48.45C28.9115 48.59 28.8615 48.75 28.8615 48.93C28.8615 49.1433 28.9348 49.3167 29.0815 49.45C29.2348 49.5767 29.4315 49.6767 29.6715 49.75C29.9181 49.8233 30.1915 49.8967 30.4915 49.97C30.7915 50.0367 31.0881 50.1133 31.3815 50.2C31.6815 50.2867 31.9515 50.4 32.1915 50.54C32.4381 50.68 32.6348 50.87 32.7815 51.11C32.9348 51.35 33.0115 51.6533 33.0115 52.02C33.0115 52.3933 32.9081 52.74 32.7015 53.06C32.5015 53.3733 32.1915 53.6267 31.7715 53.82C31.3515 54.0067 30.8215 54.1 30.1815 54.1ZM35.2229 54V48.1H32.9029V47H38.8429V48.1H36.5229V54H35.2229ZM38.077 54L41.227 47H42.507L45.667 54H44.307L41.597 47.69H42.117L39.417 54H38.077ZM39.527 52.38L39.877 51.36H43.657L44.007 52.38H39.527ZM42.587 46.43C42.427 46.43 42.2803 46.4 42.147 46.34C42.0203 46.2733 41.9036 46.1967 41.797 46.11C41.697 46.0167 41.6003 45.9367 41.507 45.87C41.4136 45.8033 41.3203 45.77 41.227 45.77C41.087 45.77 40.9736 45.8233 40.887 45.93C40.8003 46.0367 40.7503 46.1833 40.737 46.37H40.067C40.0803 45.9567 40.1803 45.63 40.367 45.39C40.5603 45.15 40.8203 45.03 41.147 45.03C41.307 45.03 41.4536 45.0633 41.587 45.13C41.7203 45.1967 41.837 45.2733 41.937 45.36C42.0436 45.4467 42.1436 45.5233 42.237 45.59C42.3303 45.6567 42.4203 45.69 42.507 45.69C42.647 45.69 42.7603 45.64 42.847 45.54C42.9403 45.44 42.9903 45.3 42.997 45.12H43.667C43.6603 45.5067 43.5603 45.8233 43.367 46.07C43.1736 46.31 42.9136 46.43 42.587 46.43ZM49.3395 54.1C48.7929 54.1 48.2895 54.01 47.8295 53.83C47.3695 53.65 46.9695 53.4 46.6295 53.08C46.2895 52.7533 46.0262 52.3733 45.8395 51.94C45.6529 51.5 45.5595 51.02 45.5595 50.5C45.5595 49.98 45.6529 49.5033 45.8395 49.07C46.0262 48.63 46.2895 48.25 46.6295 47.93C46.9695 47.6033 47.3695 47.35 47.8295 47.17C48.2895 46.99 48.7895 46.9 49.3295 46.9C49.8762 46.9 50.3762 46.99 50.8295 47.17C51.2895 47.35 51.6895 47.6033 52.0295 47.93C52.3695 48.25 52.6329 48.63 52.8195 49.07C53.0062 49.5033 53.0995 49.98 53.0995 50.5C53.0995 51.02 53.0062 51.5 52.8195 51.94C52.6329 52.38 52.3695 52.76 52.0295 53.08C51.6895 53.4 51.2895 53.65 50.8295 53.83C50.3762 54.01 49.8795 54.1 49.3395 54.1ZM49.3295 52.96C49.6829 52.96 50.0095 52.9 50.3095 52.78C50.6095 52.66 50.8695 52.49 51.0895 52.27C51.3095 52.0433 51.4795 51.7833 51.5995 51.49C51.7262 51.19 51.7895 50.86 51.7895 50.5C51.7895 50.14 51.7262 49.8133 51.5995 49.52C51.4795 49.22 51.3095 48.96 51.0895 48.74C50.8695 48.5133 50.6095 48.34 50.3095 48.22C50.0095 48.1 49.6829 48.04 49.3295 48.04C48.9762 48.04 48.6495 48.1 48.3495 48.22C48.0562 48.34 47.7962 48.5133 47.5695 48.74C47.3495 48.96 47.1762 49.22 47.0495 49.52C46.9295 49.8133 46.8695 50.14 46.8695 50.5C46.8695 50.8533 46.9295 51.18 47.0495 51.48C47.1762 51.78 47.3495 52.0433 47.5695 52.27C47.7895 52.49 48.0495 52.66 48.3495 52.78C48.6495 52.9 48.9762 52.96 49.3295 52.96ZM56.4412 54V47H59.5012C60.2612 47 60.9278 47.1467 61.5012 47.44C62.0745 47.7333 62.5212 48.14 62.8412 48.66C63.1612 49.18 63.3212 49.7933 63.3212 50.5C63.3212 51.2 63.1612 51.8133 62.8412 52.34C62.5212 52.86 62.0745 53.2667 61.5012 53.56C60.9278 53.8533 60.2612 54 59.5012 54H56.4412ZM57.7412 52.9H59.4412C59.9678 52.9 60.4212 52.8 60.8012 52.6C61.1878 52.4 61.4845 52.12 61.6912 51.76C61.9045 51.4 62.0112 50.98 62.0112 50.5C62.0112 50.0133 61.9045 49.5933 61.6912 49.24C61.4845 48.88 61.1878 48.6 60.8012 48.4C60.4212 48.2 59.9678 48.1 59.4412 48.1H57.7412V52.9ZM65.5029 49.91H68.9829V50.98H65.5029V49.91ZM65.6029 52.91H69.5529V54H64.3029V47H69.4129V48.09H65.6029V52.91ZM76.2058 54.1C75.6724 54.1 75.1758 54.0133 74.7158 53.84C74.2624 53.66 73.8658 53.41 73.5258 53.09C73.1924 52.7633 72.9324 52.38 72.7458 51.94C72.5591 51.5 72.4658 51.02 72.4658 50.5C72.4658 49.98 72.5591 49.5 72.7458 49.06C72.9324 48.62 73.1958 48.24 73.5358 47.92C73.8758 47.5933 74.2724 47.3433 74.7258 47.17C75.1791 46.99 75.6758 46.9 76.2158 46.9C76.7891 46.9 77.3124 47 77.7858 47.2C78.2591 47.3933 78.6591 47.6833 78.9858 48.07L78.1458 48.86C77.8924 48.5867 77.6091 48.3833 77.2958 48.25C76.9824 48.11 76.6424 48.04 76.2758 48.04C75.9091 48.04 75.5724 48.1 75.2658 48.22C74.9658 48.34 74.7024 48.51 74.4758 48.73C74.2558 48.95 74.0824 49.21 73.9558 49.51C73.8358 49.81 73.7758 50.14 73.7758 50.5C73.7758 50.86 73.8358 51.19 73.9558 51.49C74.0824 51.79 74.2558 52.05 74.4758 52.27C74.7024 52.49 74.9658 52.66 75.2658 52.78C75.5724 52.9 75.9091 52.96 76.2758 52.96C76.6424 52.96 76.9824 52.8933 77.2958 52.76C77.6091 52.62 77.8924 52.41 78.1458 52.13L78.9858 52.93C78.6591 53.31 78.2591 53.6 77.7858 53.8C77.3124 54 76.7858 54.1 76.2058 54.1ZM82.9649 54.1C82.4183 54.1 81.9149 54.01 81.4549 53.83C80.9949 53.65 80.5949 53.4 80.2549 53.08C79.9149 52.7533 79.6516 52.3733 79.4649 51.94C79.2783 51.5 79.1849 51.02 79.1849 50.5C79.1849 49.98 79.2783 49.5033 79.4649 49.07C79.6516 48.63 79.9149 48.25 80.2549 47.93C80.5949 47.6033 80.9949 47.35 81.4549 47.17C81.9149 46.99 82.4149 46.9 82.9549 46.9C83.5016 46.9 84.0016 46.99 84.4549 47.17C84.9149 47.35 85.3149 47.6033 85.6549 47.93C85.9949 48.25 86.2583 48.63 86.4449 49.07C86.6316 49.5033 86.7249 49.98 86.7249 50.5C86.7249 51.02 86.6316 51.5 86.4449 51.94C86.2583 52.38 85.9949 52.76 85.6549 53.08C85.3149 53.4 84.9149 53.65 84.4549 53.83C84.0016 54.01 83.5049 54.1 82.9649 54.1ZM82.9549 52.96C83.3083 52.96 83.6349 52.9 83.9349 52.78C84.2349 52.66 84.4949 52.49 84.7149 52.27C84.9349 52.0433 85.1049 51.7833 85.2249 51.49C85.3516 51.19 85.4149 50.86 85.4149 50.5C85.4149 50.14 85.3516 49.8133 85.2249 49.52C85.1049 49.22 84.9349 48.96 84.7149 48.74C84.4949 48.5133 84.2349 48.34 83.9349 48.22C83.6349 48.1 83.3083 48.04 82.9549 48.04C82.6016 48.04 82.2749 48.1 81.9749 48.22C81.6816 48.34 81.4216 48.5133 81.1949 48.74C80.9749 48.96 80.8016 49.22 80.6749 49.52C80.5549 49.8133 80.4949 50.14 80.4949 50.5C80.4949 50.8533 80.5549 51.18 80.6749 51.48C80.8016 51.78 80.9749 52.0433 81.1949 52.27C81.4149 52.49 81.6749 52.66 81.9749 52.78C82.2749 52.9 82.6016 52.96 82.9549 52.96ZM87.7029 54V47H88.7729L93.1629 52.39H92.6329V47H93.9229V54H92.8529L88.4629 48.61H88.9929V54H87.7029ZM96.8186 54V48.1H94.4986V47H100.439V48.1H98.1186V54H96.8186ZM101.014 54V47H103.894C104.514 47 105.044 47.1 105.484 47.3C105.931 47.5 106.274 47.7867 106.514 48.16C106.754 48.5333 106.874 48.9767 106.874 49.49C106.874 50.0033 106.754 50.4467 106.514 50.82C106.274 51.1867 105.931 51.47 105.484 51.67C105.044 51.8633 104.514 51.96 103.894 51.96H101.734L102.314 51.37V54H101.014ZM105.594 54L103.824 51.46H105.214L106.994 54H105.594ZM102.314 51.51L101.734 50.89H103.834C104.408 50.89 104.838 50.7667 105.124 50.52C105.418 50.2733 105.564 49.93 105.564 49.49C105.564 49.0433 105.418 48.7 105.124 48.46C104.838 48.22 104.408 48.1 103.834 48.1H101.734L102.314 47.46V51.51ZM106.939 54L110.089 47H111.369L114.529 54H113.169L110.459 47.69H110.979L108.279 54H106.939ZM108.389 52.38L108.739 51.36H112.519L112.869 52.38H108.389ZM116.087 54V48.1H113.767V47H119.707V48.1H117.387V54H116.087ZM123.465 54.1C122.919 54.1 122.415 54.01 121.955 53.83C121.495 53.65 121.095 53.4 120.755 53.08C120.415 52.7533 120.152 52.3733 119.965 51.94C119.779 51.5 119.685 51.02 119.685 50.5C119.685 49.98 119.779 49.5033 119.965 49.07C120.152 48.63 120.415 48.25 120.755 47.93C121.095 47.6033 121.495 47.35 121.955 47.17C122.415 46.99 122.915 46.9 123.455 46.9C124.002 46.9 124.502 46.99 124.955 47.17C125.415 47.35 125.815 47.6033 126.155 47.93C126.495 48.25 126.759 48.63 126.945 49.07C127.132 49.5033 127.225 49.98 127.225 50.5C127.225 51.02 127.132 51.5 126.945 51.94C126.759 52.38 126.495 52.76 126.155 53.08C125.815 53.4 125.415 53.65 124.955 53.83C124.502 54.01 124.005 54.1 123.465 54.1ZM123.455 52.96C123.809 52.96 124.135 52.9 124.435 52.78C124.735 52.66 124.995 52.49 125.215 52.27C125.435 52.0433 125.605 51.7833 125.725 51.49C125.852 51.19 125.915 50.86 125.915 50.5C125.915 50.14 125.852 49.8133 125.725 49.52C125.605 49.22 125.435 48.96 125.215 48.74C124.995 48.5133 124.735 48.34 124.435 48.22C124.135 48.1 123.809 48.04 123.455 48.04C123.102 48.04 122.775 48.1 122.475 48.22C122.182 48.34 121.922 48.5133 121.695 48.74C121.475 48.96 121.302 49.22 121.175 49.52C121.055 49.8133 120.995 50.14 120.995 50.5C120.995 50.8533 121.055 51.18 121.175 51.48C121.302 51.78 121.475 52.0433 121.695 52.27C121.915 52.49 122.175 52.66 122.475 52.78C122.775 52.9 123.102 52.96 123.455 52.96ZM130.373 54.1C129.827 54.1 129.303 54.0233 128.803 53.87C128.303 53.71 127.907 53.5067 127.613 53.26L128.063 52.25C128.343 52.47 128.69 52.6533 129.103 52.8C129.517 52.9467 129.94 53.02 130.373 53.02C130.74 53.02 131.037 52.98 131.263 52.9C131.49 52.82 131.657 52.7133 131.763 52.58C131.87 52.44 131.923 52.2833 131.923 52.11C131.923 51.8967 131.847 51.7267 131.693 51.6C131.54 51.4667 131.34 51.3633 131.093 51.29C130.853 51.21 130.583 51.1367 130.283 51.07C129.99 51.0033 129.693 50.9267 129.393 50.84C129.1 50.7467 128.83 50.63 128.583 50.49C128.343 50.3433 128.147 50.15 127.993 49.91C127.84 49.67 127.763 49.3633 127.763 48.99C127.763 48.61 127.863 48.2633 128.063 47.95C128.27 47.63 128.58 47.3767 128.993 47.19C129.413 46.9967 129.943 46.9 130.583 46.9C131.003 46.9 131.42 46.9533 131.833 47.06C132.247 47.1667 132.607 47.32 132.913 47.52L132.503 48.53C132.19 48.3433 131.867 48.2067 131.533 48.12C131.2 48.0267 130.88 47.98 130.573 47.98C130.213 47.98 129.92 48.0233 129.693 48.11C129.473 48.1967 129.31 48.31 129.203 48.45C129.103 48.59 129.053 48.75 129.053 48.93C129.053 49.1433 129.127 49.3167 129.273 49.45C129.427 49.5767 129.623 49.6767 129.863 49.75C130.11 49.8233 130.383 49.8967 130.683 49.97C130.983 50.0367 131.28 50.1133 131.573 50.2C131.873 50.2867 132.143 50.4 132.383 50.54C132.63 50.68 132.827 50.87 132.973 51.11C133.127 51.35 133.203 51.6533 133.203 52.02C133.203 52.3933 133.1 52.74 132.893 53.06C132.693 53.3733 132.383 53.6267 131.963 53.82C131.543 54.0067 131.013 54.1 130.373 54.1Z" fill="white"/>
</svg>
